<svg xmlns="http://www.w3.org/2000/svg" version="1.1" xmlns:xlink="http://www.w3.org/1999/xlink" xmlns:svgjs="http://svgjs.dev/svgjs" width="1500" height="1500" viewBox="0 0 1500 1500"><rect width="1500" height="1500" fill="#ffffff"></rect><g transform="matrix(0.6666666666666666,0,0,0.6666666666666666,249.39393939393938,590.8670520421513)"><svg viewBox="0 0 396 126" data-background-color="#ffffff" preserveAspectRatio="xMidYMid meet" height="477" width="1500" xmlns="http://www.w3.org/2000/svg" xmlns:xlink="http://www.w3.org/1999/xlink"><g id="tight-bounds" transform="matrix(1,0,0,1,0.2400000000000091,0.05267749273249933)"><svg viewBox="0 0 395.52 125.89464501453499" height="125.89464501453499" width="395.52"><g><svg viewBox="0 0 604.4354191226463 192.39275516954194" height="125.89464501453499" width="395.52"><g transform="matrix(1,0,0,1,208.91541912264628,59.452153908387864)"><svg viewBox="0 0 395.52 73.48844735276622" height="73.48844735276622" width="395.52"><g id="textblocktransform"><svg viewBox="0 0 395.52 73.48844735276622" height="73.48844735276622" width="395.52" id="textblock"><g><svg viewBox="0 0 395.52 73.48844735276622" height="73.48844735276622" width="395.52"><g transform="matrix(1,0,0,1,0,0)"><svg width="395.52" viewBox="7.1 -41.65 252.13000000000002 46.85" height="73.48844735276622" data-palette-color="#ffffff"><path d="M7.1-9.8L7.1-9.8Q7.1-13.3 7.93-16.68 8.75-20.05 10.25-23.08 11.75-26.1 13.83-28.63 15.9-31.15 18.38-33 20.85-34.85 23.65-35.88 26.45-36.9 29.4-36.9L29.4-36.9Q32.85-36.9 34.77-35.45 36.7-34 36.7-31.4L36.7-31.4Q36.7-30.4 36.43-29.35 36.15-28.3 35.63-27.28 35.1-26.25 34.4-25.3 33.7-24.35 32.85-23.65L32.85-23.65Q31.55-23.85 30.6-24.83 29.65-25.8 29.4-27.1L29.4-27.1Q31.15-28.55 32.18-30.13 33.2-31.7 33.2-33L33.2-33Q33.2-35.2 30.45-35.2L30.45-35.2Q29.3-35.2 28.08-34.73 26.85-34.25 25.6-33.4 24.35-32.55 23.18-31.35 22-30.15 21-28.7L21-28.7Q14.05-18.7 14.05-8.25L14.05-8.25Q14.05-4.55 15.2-2.3 16.35-0.05 18.25 0.35L18.25 0.35Q20.4-0.15 23.7-2.4 27-4.65 30.9-8.25L30.9-8.25Q31.4-7.75 31.5-7.2L31.5-7.2Q30.05-5.3 28.5-3.55 26.95-1.8 25.43-0.35 23.9 1.1 22.43 2.2 20.95 3.3 19.7 3.9L19.7 3.9Q13.5 3.8 10.3 0.35 7.1-3.1 7.1-9.8ZM48.65-1.1L48.65-1.1Q47.7-1.9 47.37-3.1 47.05-4.3 47.05-5.15L47.05-5.15Q47.05-6.2 47.3-6.95L47.3-6.95Q47.1-6.95 46.4-6.15 45.7-5.35 44.87-4.25 44.05-3.15 43.25-2.1 42.45-1.05 42.05-0.55L42.05-0.55Q41.4 0.15 40.82 0.55 40.25 0.95 39.9 1L39.9 1Q39.1 0.95 38.22 0.68 37.35 0.4 36.57-0.1 35.8-0.6 35.22-1.3 34.65-2 34.45-2.9L34.45-2.9Q34.45-4.3 34.52-5.2 34.6-6.1 34.85-7.15L34.85-7.15Q35.3-9.05 36.17-11.45 37.05-13.85 38.2-16.18 39.35-18.5 40.77-20.53 42.2-22.55 43.8-23.7L43.8-23.7Q44.25-23.7 44.85-23.63 45.45-23.55 46.07-23.35 46.7-23.15 47.27-22.88 47.85-22.6 48.25-22.15L48.25-22.15Q47.8-21.65 45.97-18.8 44.15-15.95 41.9-10.6L41.9-10.6Q41.65-10.05 41.3-9 40.95-7.95 40.6-6.8 40.25-5.65 40.02-4.55 39.8-3.45 39.8-2.8L39.8-2.8Q39.8-2.4 39.92-2.2 40.05-2 40.15-1.9L40.15-1.9Q40.9-2.2 42.05-3.55 43.2-4.9 45.25-7.7L45.25-7.7Q45.75-8.4 46.42-9.3 47.1-10.2 47.8-11.23 48.5-12.25 49.12-13.35 49.75-14.45 50.15-15.55L50.15-15.55Q50.35-16.15 50.67-16.98 51-17.8 51.47-18.7 51.95-19.6 52.57-20.53 53.2-21.45 54.05-22.25L54.05-22.25Q54.7-22.25 55.45-22.1 56.2-21.95 56.87-21.73 57.55-21.5 58.05-21.23 58.55-20.95 58.8-20.65L58.8-20.65Q57.9-18.45 56.8-16.3 55.7-14.15 54.75-12.08 53.8-10 53.15-7.95 52.5-5.9 52.5-3.95L52.5-3.95Q52.5-2.9 52.67-2.13 52.85-1.35 53.05-0.83 53.25-0.3 53.42 0.05 53.6 0.4 53.6 0.65L53.6 0.65Q53.6 0.7 53.5 0.8L53.5 0.8Q53.45 0.85 53.4 0.85L53.4 0.85Q53.05 0.85 52.5 0.7 51.95 0.55 51.27 0.28 50.6 0 49.92-0.35 49.25-0.7 48.65-1.1ZM64.15 0.35L64.15 0.35Q66.45-1.2 68.65-3.63 70.85-6.05 72.65-8.88 74.45-11.7 75.7-14.75 76.95-17.8 77.4-20.6L77.4-20.6Q77.4-21.2 76.75-21.4L76.75-21.4Q76.05-21.4 74.82-20.18 73.6-18.95 72.12-17.05 70.65-15.15 69.12-12.8 67.6-10.45 66.35-8.13 65.1-5.8 64.22-3.78 63.35-1.75 63.25-0.5L63.25-0.5Q62.75-0.5 62.4-1.5L62.4-1.5Q62.3-1.75 62.05-2.02 61.8-2.3 61.25-2.7L61.25-2.7Q61-2.9 60.75-3.18 60.5-3.45 60.4-3.65L60.4-3.65Q60.2-4.05 60.2-4.95L60.2-4.95Q60.2-7.9 60.95-11.6 61.7-15.3 62.92-19.15 64.15-23 65.8-26.73 67.45-30.45 69.22-33.55 71-36.65 72.8-38.8 74.6-40.95 76.2-41.65L76.2-41.65Q76.7-41.5 77.4-41.15 78.1-40.8 78.8-40.35 79.5-39.9 80.12-39.45 80.75-39 81.05-38.65L81.05-38.65Q75.55-34.2 71.52-27.23 67.5-20.25 64.95-10.75L64.95-10.75Q66.35-13.35 68.1-15.78 69.85-18.2 71.57-20.05 73.3-21.9 74.87-23 76.45-24.1 77.5-24.1L77.5-24.1Q78.3-23.9 79.05-23.4 79.8-22.9 80.4-22.18 81-21.45 81.4-20.63 81.8-19.8 81.9-18.9L81.9-18.9Q81.85-16.8 81.17-14.43 80.5-12.05 79.37-9.75 78.25-7.45 76.82-5.35 75.4-3.25 73.82-1.68 72.25-0.1 70.67 0.85 69.1 1.8 67.7 1.8L67.7 1.8Q67.1 1.8 66.47 1.68 65.85 1.55 65.32 1.33 64.8 1.1 64.47 0.85 64.15 0.6 64.15 0.35ZM101.04-20.7L101.04-20.7Q100.84-17.6 99.94-15.38 99.04-13.15 97.37-11.48 95.69-9.8 93.29-8.45 90.89-7.1 87.69-5.85L87.69-5.85Q87.69-5.55 87.67-5.23 87.64-4.9 87.64-4.55L87.64-4.55Q87.64-3.9 87.74-3.2 87.84-2.5 88.09-1.9 88.34-1.3 88.79-0.93 89.24-0.55 89.94-0.55L89.94-0.55Q91.29-0.55 92.59-1.15 93.89-1.75 95.07-2.63 96.24-3.5 97.27-4.53 98.29-5.55 99.09-6.4L99.09-6.4Q99.59-5.95 99.94-5.55L99.94-5.55Q97.69-2.55 95.02-0.58 92.34 1.4 89.94 1.95L89.94 1.95Q86.49 1.55 84.57-0.58 82.64-2.7 82.64-5.7L82.64-5.7Q82.64-7.75 83.22-9.88 83.79-12 84.82-13.98 85.84-15.95 87.22-17.7 88.59-19.45 90.17-20.75 91.74-22.05 93.42-22.8 95.09-23.55 96.74-23.55L96.74-23.55Q99.04-23.25 101.04-20.7ZM97.59-19.05L97.59-19.05Q96.24-18.85 94.79-17.95 93.34-17.05 92.07-15.55 90.79-14.05 89.74-12.05 88.69-10.05 88.09-7.75L88.09-7.75Q92.09-9.75 94.74-12.68 97.39-15.6 97.59-19.05ZM136.09 3.7L136.09 3.7Q135.99 3.75 135.89 3.75 135.79 3.75 135.49 3.75L135.49 3.75Q134.79 3.75 133.86 3.53 132.94 3.3 132.06 2.98 131.19 2.65 130.56 2.25 129.94 1.85 129.79 1.55L129.79 1.55Q129.74 0.85 129.74 0.1 129.74-0.65 129.74-1.35L129.74-1.35Q129.74-6.95 130.56-13.05 131.39-19.15 133.29-26.25L133.29-26.25Q133.49-26.95 133.71-28.03 133.94-29.1 134.19-30.35L134.19-30.35Q132.99-29.4 131.34-27.33 129.69-25.25 127.86-22.43 126.04-19.6 124.21-16.23 122.39-12.85 120.89-9.38 119.39-5.9 118.31-2.5 117.24 0.9 116.99 3.8L116.99 3.8Q114.59 3.1 113.66 2.4 112.74 1.7 112.74 0.7L112.74 0.7Q112.74-0.2 113.29-1.85 113.84-3.5 114.84-5.75 115.84-8 117.29-10.78 118.74-13.55 120.49-16.75L120.49-16.75Q122.49-20.4 124.41-23.6 126.34-26.8 128.19-29.4 130.04-32 131.81-33.9 133.59-35.8 135.34-36.8L135.34-36.8Q136.04-36.8 137.21-36.45 138.39-36.1 139.51-35.6 140.64-35.1 141.51-34.58 142.39-34.05 142.49-33.7L142.49-33.7Q141.79-32.3 140.84-29.5 139.89-26.7 138.91-23.15 137.94-19.6 137.06-15.63 136.19-11.65 135.69-8L135.69-8Q136.84-10.75 138.36-13.73 139.89-16.7 141.59-19.63 143.29-22.55 145.06-25.3 146.84-28.05 148.54-30.33 150.24-32.6 151.71-34.3 153.19-36 154.34-36.8L154.34-36.8Q155.04-36.8 156.21-36.45 157.39-36.1 158.51-35.6 159.64-35.1 160.51-34.58 161.39-34.05 161.49-33.7L161.49-33.7Q159.89-30.85 158.69-26.75 157.49-22.65 156.66-18.15 155.84-13.65 155.41-9.22 154.99-4.8 154.99-1.3L154.99-1.3Q154.99-0.15 154.99 1.1 154.99 2.35 155.09 3.7L155.09 3.7Q154.39 3.7 153.41 3.53 152.44 3.35 151.51 3.05 150.59 2.75 149.84 2.38 149.09 2 148.79 1.55L148.79 1.55Q148.74 0.85 148.74 0.1 148.74-0.65 148.74-1.35L148.74-1.35Q148.74-6.95 149.56-13.05 150.39-19.15 152.29-26.25L152.29-26.25Q152.49-26.95 152.74-28.15 152.99-29.35 153.24-30.65L153.24-30.65Q151.84-29.95 150.06-27.98 148.29-26 146.46-23.18 144.64-20.35 142.86-16.9 141.09-13.45 139.66-9.88 138.24-6.3 137.26-2.78 136.29 0.75 136.09 3.7ZM178.34-20.2L178.34-20.2Q178.84-20.2 179.51-20.03 180.19-19.85 180.74-19.58 181.29-19.3 181.66-19 182.04-18.7 182.04-18.45L182.04-18.45Q181.04-16.35 180.19-14.23 179.34-12.1 178.74-10.15 178.14-8.2 177.81-6.5 177.49-4.8 177.49-3.55L177.49-3.55Q177.49-2.15 177.79-1.23 178.09-0.3 178.79 0.1L178.79 0.1Q178.19 0.5 177.24 0.75 176.29 1 175.54 1L175.54 1Q172.84 1 172.84-2.7L172.84-2.7Q172.84-5.55 174.74-10.5L174.74-10.5Q173.74-8.2 172.44-6.18 171.14-4.15 169.79-2.6 168.44-1.05 167.06-0.08 165.69 0.9 164.54 1.1L164.54 1.1Q162.69 1 161.54-0.68 160.39-2.35 160.39-4.95L160.39-4.95Q160.39-7.75 161.59-10.85 162.79-13.95 164.66-16.6 166.54-19.25 168.74-21.03 170.94-22.8 172.99-22.9L172.99-22.9Q173.49-22.75 174.11-22.3 174.74-21.85 175.31-21.25 175.89-20.65 176.29-20.03 176.69-19.4 176.74-18.95L176.74-18.95Q174.74-18.65 172.61-17 170.49-15.35 168.76-13.03 167.04-10.7 165.94-8.05 164.84-5.4 164.84-3.1L164.84-3.1Q164.84-2.15 165.54-1.9L165.54-1.9Q166.99-2.2 168.89-4.38 170.79-6.55 173.49-11.1L173.49-11.1Q173.99-12 174.61-13.1 175.24-14.2 175.89-15.4 176.54-16.6 177.16-17.82 177.79-19.05 178.34-20.2ZM201.83-19.9L201.83-19.9Q201.78-18.95 201.51-17.93 201.23-16.9 200.83-16.07 200.43-15.25 199.98-14.7 199.53-14.15 199.13-14.15L199.13-14.15Q198.58-14.2 198.48-14.9L198.48-14.9Q198.48-15.05 198.61-15.38 198.73-15.7 198.88-16.1 199.03-16.5 199.16-16.9 199.28-17.3 199.28-17.6L199.28-17.6Q199.28-18.3 198.96-18.78 198.63-19.25 198.08-19.25L198.08-19.25Q196.08-19.25 195.03-16.75 193.98-14.25 193.98-9.4L193.98-9.4Q193.98-8.9 194.03-8.8L194.03-8.8Q195.08-8.85 195.91-8.88 196.73-8.9 197.53-8.9L197.53-8.9Q197.58-8.8 197.58-8.5L197.58-8.5Q197.58-8.05 197.38-7.85L197.38-7.85Q196.23-7.6 195.56-7.43 194.88-7.25 194.53-7.1 194.18-6.95 194.11-6.78 194.03-6.6 194.03-6.3L194.03-6.3Q194.03-5.9 194.06-5.5 194.08-5.1 194.08-4.5L194.08-4.5Q194.08-0.3 191.81 2.25 189.53 4.8 185.48 5.2L185.48 5.2Q184.78 5.15 184.03 4.8 183.28 4.45 182.61 3.9 181.93 3.35 181.43 2.68 180.93 2 180.73 1.3L180.73 1.3Q180.73-0.6 181.53-2.33 182.33-4.05 183.71-5.38 185.08-6.7 186.96-7.53 188.83-8.35 191.03-8.5L191.03-8.5Q191.03-9.75 190.78-10.95 190.53-12.15 190.26-13.28 189.98-14.4 189.73-15.48 189.48-16.55 189.48-17.6L189.48-17.6Q189.48-18.95 190.03-20.28 190.58-21.6 191.48-22.73 192.38-23.85 193.58-24.65 194.78-25.45 196.08-25.75L196.08-25.75Q196.63-25.6 197.56-24.88 198.48-24.15 199.38-23.25 200.28-22.35 200.98-21.43 201.68-20.5 201.83-19.9ZM185.33 2.9L185.33 2.9Q186.53 2.4 187.61 1.45 188.68 0.5 189.48-0.7 190.28-1.9 190.76-3.25 191.23-4.6 191.23-5.9L191.23-5.9Q190.23-5.75 189.03-4.98 187.83-4.2 186.78-3.13 185.73-2.05 185.03-0.9 184.33 0.25 184.33 1.1L184.33 1.1Q184.33 2.2 185.33 2.9ZM207.68-19.15L204.83-19.15Q204.58-19.45 204.38-20.43 204.18-21.4 204.18-22.1L204.18-22.1Q205.48-22 206.68-21.93 207.88-21.85 208.88-21.8L208.88-21.8Q209.63-23.3 210.51-24.78 211.38-26.25 212.21-27.48 213.03-28.7 213.76-29.55 214.48-30.4 214.88-30.65L214.88-30.65Q215.38-30.65 216.16-30.48 216.93-30.3 217.73-30.03 218.53-29.75 219.18-29.45 219.83-29.15 220.08-28.85L220.08-28.85Q218.58-26.95 217.51-25.33 216.43-23.7 215.18-21.6L215.18-21.6Q216.18-21.6 217.21-21.65 218.23-21.7 219.28-21.8L219.28-21.8Q219.53-21.55 219.68-21.18 219.83-20.8 219.83-20.4L219.83-20.4Q217.38-19.5 213.88-19.4L213.88-19.4Q212.63-17 211.66-14.63 210.68-12.25 210.01-10.05 209.33-7.85 208.96-5.9 208.58-3.95 208.58-2.4L208.58-2.4Q208.58-0.2 210.23 0.05L210.23 0.05Q211.73-0.15 213.08-0.7 214.43-1.25 215.48-2.1L215.48-2.1Q215.78-1.65 215.83-1.35L215.83-1.35Q215.53-0.9 214.81-0.3 214.08 0.3 213.23 0.88 212.38 1.45 211.58 1.85 210.78 2.25 210.38 2.3L210.38 2.3Q209.13 2.25 207.88 1.75 206.63 1.25 205.61 0.5 204.58-0.25 203.93-1.18 203.28-2.1 203.28-3L203.28-3Q203.28-4.2 203.61-6.03 203.93-7.85 204.53-10 205.13-12.15 205.93-14.5 206.73-16.85 207.68-19.15L207.68-19.15ZM237.38-20.7L237.38-20.7Q237.18-17.6 236.28-15.38 235.38-13.15 233.7-11.48 232.03-9.8 229.63-8.45 227.23-7.1 224.03-5.85L224.03-5.85Q224.03-5.55 224-5.23 223.98-4.9 223.98-4.55L223.98-4.55Q223.98-3.9 224.08-3.2 224.18-2.5 224.43-1.9 224.68-1.3 225.13-0.93 225.58-0.55 226.28-0.55L226.28-0.55Q227.63-0.55 228.93-1.15 230.23-1.75 231.4-2.63 232.58-3.5 233.6-4.53 234.63-5.55 235.43-6.4L235.43-6.4Q235.93-5.95 236.28-5.55L236.28-5.55Q234.03-2.55 231.35-0.58 228.68 1.4 226.28 1.95L226.28 1.95Q222.83 1.55 220.9-0.58 218.98-2.7 218.98-5.7L218.98-5.7Q218.98-7.75 219.55-9.88 220.13-12 221.15-13.98 222.18-15.95 223.55-17.7 224.93-19.45 226.5-20.75 228.08-22.05 229.75-22.8 231.43-23.55 233.08-23.55L233.08-23.55Q235.38-23.25 237.38-20.7ZM233.93-19.05L233.93-19.05Q232.58-18.85 231.13-17.95 229.68-17.05 228.4-15.55 227.13-14.05 226.08-12.05 225.03-10.05 224.43-7.75L224.43-7.75Q228.43-9.75 231.08-12.68 233.73-15.6 233.93-19.05ZM238.48-1L238.48-1Q238.73-2.45 239.35-4.83 239.98-7.2 240.83-9.88 241.68-12.55 242.63-15.25 243.58-17.95 244.48-20.1L244.48-20.1Q245.13-21.65 245.63-22.53 246.13-23.4 246.73-24L246.73-24Q247.43-23.9 248.18-23.65 248.93-23.4 249.63-23.05 250.33-22.7 250.88-22.33 251.43-21.95 251.73-21.6L251.73-21.6Q250.38-20 249.35-17.95 248.33-15.9 247.28-12.7L247.28-12.7Q249.98-15.1 252.05-17.3 254.13-19.5 255.93-22.2L255.93-22.2Q256.23-22.45 256.98-22.45L256.98-22.45Q257.68-22.45 258.33-22.23 258.98-22 259.23-21.6L259.23-21.6Q258.33-19.2 258.33-16.85L258.33-16.85Q258.33-14.65 258.98-13.55L258.98-13.55Q258.93-13.25 258.3-12.4 257.68-11.55 256.93-10.8L256.93-10.8Q255.58-11.5 254.53-12.73 253.48-13.95 252.98-15.4L252.98-15.4Q250.63-13.75 248.98-12.18 247.33-10.6 246.15-8.68 244.98-6.75 244.15-4.25 243.33-1.75 242.58 1.7L242.58 1.7Q242.13 1.65 241.5 1.38 240.88 1.1 240.25 0.7 239.63 0.3 239.13-0.15 238.63-0.6 238.48-1Z" opacity="1" transform="matrix(1,0,0,1,0,0)" fill="#000000" class="wordmark-text-0" data-fill-palette-color="primary" id="text-0"></path></svg></g></svg></g></svg></g></svg></g><g><svg viewBox="0 0 191.56656042539464 192.39275516954194" height="192.39275516954194" width="191.56656042539464"><g><svg xmlns="http://www.w3.org/2000/svg" xmlns:xlink="http://www.w3.org/1999/xlink" version="1.1" x="0" y="0" viewBox="8.052000000000003 5.1295 41.562 41.74124999999999" enable-background="new 0 0 58 52" xml:space="preserve" height="192.39275516954194" width="191.56656042539464" class="icon-icon-0" data-fill-palette-color="accent" id="icon-0"><path fill-rule="evenodd" clip-rule="evenodd" d="M49.611 16.958c0-1.65-1.227-3.564-2.725-4.254L31.559 5.647c-1.498-0.69-3.951-0.69-5.45 0l-15.331 7.057c-1.499 0.69-2.726 2.604-2.726 4.254v18.083c0 1.65 1.227 3.564 2.726 4.255l15.331 7.058c1.499 0.689 3.952 0.689 5.45 0l15.33-7.058c1.498-0.69 2.725-2.604 2.725-4.255L49.611 16.958zM44.351 19.476l-11.574 5.327c-0.999 0.459-1.816 1.736-1.816 2.836V39.92c0 1.1-0.9 2-2 2h-0.262c-1.1 0-2-0.9-2-2V27.638c0-1.101-0.817-2.376-1.816-2.836l-11.571-5.325c-0.999-0.46-1.44-1.654-0.98-2.653l0.109-0.239c0.46-0.999 1.653-1.44 2.652-0.98l11.921 5.488c0.999 0.46 2.634 0.46 3.633 0l11.924-5.488c0.999-0.46 2.192-0.019 2.652 0.98l0.109 0.239C45.791 17.822 45.35 19.016 44.351 19.476z" fill="#000000" data-fill-palette-color="accent"></path></svg></g></svg></g></svg></g><defs></defs></svg><rect width="395.52" height="125.89464501453499" fill="none" stroke="none" visibility="hidden"></rect></g></svg></g></svg>